<svg class="hand-drawn" viewBox="0 0 500 400" xmlns="http://www.w3.org/2000/svg">
  <path d="M159.6434313724646,99.72557857176889 Q154.9511114313669,109.01776185640112 154.24514588790248,122.9488802703311 Q147.10908271427047,126.84560021744917 143.17307646766156,142.57143137939605 Q133.95456415115686,145.17266090311057 122.68130892167831,155.60116734126228 L98.8490108208263,160.33207289714056 Q92.84536297535847,162.29368176894707 78.08304986958127,155.41232013865067 Q71.14339909523261,151.65830959883806 56.62513631803515,141.24316791011472 L44.591030166127716,122.53751389639726 L41.10607580527886,100.82738407379993 Q39.04517114193673,92.38696020498739 45.361262935122966,76.40414026888166 Q48.9309013917549,63.671616920877916 57.39328465067813,57.25050055750849 Q73.64186006646881,51.36239117603867 76.00878781241583,45.026019432324716 L101.07964782213493,39.15006575327532 Q116.95623806403374,37.45833946722982 121.98985123668159,43.787708672464944 L142.4615453119864,58.68545125809773 L155.4147221023617,76.8963019572382 Q155.9943682766474,90.62211169195348 159.6434313724646,99.72557857176889" stroke="#333" fill="none" stroke-width="2.5" stroke-linecap="round" stroke-linejoin="round"/>
  <path d="M199.25885080939292,49.770990530454334 Q199.1583436208278,55.07604036323903 210.1972964035608,49.47925809196435 L221.85740081655305,49.59955862735779 Q224.99303155464273,56.20553671708479 232.68975022520723,49.3967245134224 Q244.4985442794176,50.71622835788629 243.15033790387318,50.88048307597625 Q255.52367801673498,52.92249752812555 253.89916039184192,50.059247428349444 L265.0304314541166,50.96817200613819 Q271.2828127333225,53.37488304572413 277.06497469858886,48.84583852942854 Q288.7335171512971,52.132551458962126 288.4384812072468,50.64402891339894 Q298.8647081420944,49.145691339787504 299.100661541358,50.5043155331507 L309.41061971904145,48.82054928179779 Q310.1205971839672,44.05162321816844 319.61114320850385,50.37491418222937 Q316.5165728854908,61.618341491415606 319.2738859302902,59.539813378587766 Q320.0570669640259,61.56583729389649 319.4782623529096,68.60954655974062 L318.9865766490273,76.11446631357803 Q315.67388418095,86.63445082169318 319.6295707083471,85.73534158002249 Q318.50438118599516,87.70748263401153 321.11977202155526,96.59827818071884 Q320.1577614597849,105.22461668178765 320.5501873139364,104.80048177177359 Q318.63523974174126,114.22453152310109 319.79593695615273,114.81508451102452 Q319.92007683782947,118.57525784932506 320.9730574403246,122.73446933821964 Q322.24859428073154,134.5100131258165 319.9022293609256,131.96388035057092 L319.23160249270694,141.76984444351922 L319.920558147107,150.62726668297665 Q306.42136008783604,143.18286230924753 307.89543642833166,149.82001881262906 Q300.8683171378035,154.5302291873718 297.05047939874305,150.88657004790693 L286.53421932231305,149.98493817630913 Q275.43519533741267,154.2861513155091 276.6592508715281,149.4699186601124 Q268.4077254762412,143.77994204251794 264.34407423206187,149.51678183934936 Q262.15453036655555,150.89003700923885 253.7971541403434,148.8988313287074 Q251.80088935820552,146.82728347514276 244.4973026121588,149.34677494104415 L231.82446426857823,150.82226852052423 Q228.81564645307213,149.55525911401654 221.98868464480614,150.3734247592042 Q218.22377055771528,157.02517101526269 209.74078827467338,149.63405710274142 Q211.8147093278554,148.5194852629291 199.89865075414937,150.27992106901237 Q196.53575173089757,140.25844124712233 199.78190890775315,139.93320755787914 L200.60222119737878,132.64586970877366 Q206.34228823610584,131.99493851975123 200.40289464359708,122.67893739910318 Q206.52776417170844,111.82125429045527 200.52696040737538,113.07781316825402 Q207.00071561612228,114.91702077041228 201.01352569511974,104.23788041368414 Q197.91816406477116,96.42896857304943 199.9875888106984,95.45843815002527 Q195.05772971021034,90.24562381755182 200.94666112934885,86.95673919103429 L200.14416022549517,76.99313174774149 Q193.72836022828534,79.52437594586804 199.3438386404774,69.018686263026 Q193.72161123556003,65.99876238806205 199.09135500692327,59.501066636793624 Q196.44098043020688,54.570544323472944 199.25885080939292,49.770990530454334" stroke="#333" fill="none" stroke-width="2.5" stroke-linecap="round" stroke-linejoin="round"/>
  <path d="M401.1171790882651,49.49756363164007 Q402.2891537358152,66.68942402152086 413.70642655936734,78.61642376532453 Q435.33898691149267,86.00559272863042 446.93322442359425,85.60379619870122 Q442.38126085422107,95.82157136920317 423.54042738614373,107.00453397235447 L430.4569186045456,140.3301459414835 Q417.8707496560855,138.69611288005032 399.5860852891842,123.98278869512546 Q392.22070264963224,138.55087498338025 371.51382562973,139.56946079052528 Q375.66230912205225,121.48241745687719 375.039863032114,108.27209054016079 Q362.34214748359,97.96639299637752 353.6333165914993,85.20381052845067 Q374.8171830451838,87.66241619468911 386.0752008660788,78.84920901035397 Q393.7508134106739,63.541410616960654 401.1171790882651,49.49756363164007" stroke="#333" fill="none" stroke-width="2.5" stroke-linecap="round" stroke-linejoin="round"/>
  <path d="M250.44426229419142,264.16368685863694 L248.9699003787198,265.1810543253184 L249.79060148226966,264.6602178648582 Q257.2636565017674,257.13031650645553 251.06322194842554,262.73855653365916 L250.87277632786632,261.9614292484787 Q252.17535080711806,262.5379293983215 251.7314938639573,260.2571406029391 Q257.50442112046113,258.74191996815796 251.7355039477503,258.2761323064817 Q260.1427696009057,257.67053165431787 254.13750607009663,255.5784439829303 Q262.15026906139695,254.96002461285997 255.8770958915211,252.85217124900493 Q259.8352162290617,254.00401756917796 257.9306088111915,250.45636049496397 Q260.9130521626582,242.77530127463186 260.6200039905067,249.33197912169564 Q255.3279504359393,251.86028180262076 263.22794988628544,246.73808858479774 Q260.9586206699151,249.36887127901815 264.4903568869656,245.83857697842006 L268.3970141384563,245.1725415184446 Q264.1382776150775,238.43330289260427 273.00314664821764,244.81795526665513 Q268.93581779299404,241.90324122179626 275.6264428661876,244.06213238507442 L279.811495004656,243.82617386801468 Q284.72465923704084,241.11333251718136 281.99269228288864,246.31477764682106 Q281.58358493759897,252.440028651901 284.6137096642163,248.29619532174587 Q279.75203152331693,255.5480703222519 289.1124573250519,250.29990217114954 L290.362212054297,252.392565188289 Q296.33232095327725,253.25726837018468 293.36367197245846,255.4311199156015 L296.2336944447613,256.9773386412275 Q291.1895838203972,258.47025249884473 295.9335529067928,260.8989000893721 L297.62966450075476,263.62328954274926 Q293.4141635779057,259.58683186424605 299.12618748705285,268.63060903368415 L297.6137229851617,272.6549651282102 L297.6810441520556,275.8177644637242 Q302.9777517604162,281.0460718321938 295.7700219901758,277.72563177421773 Q299.56760726721757,286.0345431761265 292.8305531361662,281.45683853003425 L290.5233955615957,284.92588091152993 Q287.93078905821255,291.7771017798806 288.25010498674425,288.1985191804556 L285.1264037766396,291.19796221637915 L281.7447386684178,296.21944705515756 Q273.0494140530551,291.3079452140219 278.09833376767097,298.5708548492944 Q275.7916650254431,305.4557077710126 275.0641705564993,300.8006535625834 Q270.68105178653764,302.42466847222 271.1276523902437,304.4278398337641 Q274.22993560417973,300.0205661348139 268.5180826883416,306.59830836929893 L264.77994092348916,309.97920284104043 Q263.2719799257179,304.1611634720378 262.9583033661365,312.1313308174984 L260.2967740901937,316.122779610213 Q252.01384472511344,323.0309424957812 256.35360915400133,317.67768929329833 L254.70148514234535,321.43144533302467 L253.62581738442162,323.47136717736413 Q246.49818489891712,320.2771976011098 252.4529359338244,325.48371771199066 Q252.61882265242744,321.7199429684802 250.4223578348505,325.9467361804219 Q257.6411606543127,330.89618780754205 250.84546431927936,327.5153615040797 Q245.3201565366892,326.546764854254 250.21134346334222,328.48497172656477 Q247.72814780236178,324.67368189615485 250.2358241577303,331.35719910297036 Q244.68223722908039,334.3375514443798 249.58760931263106,329.7401509342623 Q250.74336024149724,325.80432260658546 248.88286243690618,331.5098226161239 L251.09636193897364,330.8319500645091 Q247.35562872361902,331.5096123438654 248.96127538289883,331.265523386945 Q252.97164315227556,323.552340524709 250.0602842589118,328.47169159321413 Q244.8242627952787,321.73861299763144 248.37759105824244,327.5323589119251 Q243.8450105746404,332.6648413255798 249.75856755668192,327.7701479969866 Q248.65244000700397,326.2245096440162 246.859896616188,324.66390317424657 Q239.86523745565327,325.61979510112593 246.4481778143387,323.38792497756185 L243.45564958907516,321.5026635065639 Q237.088485789923,315.94141823614103 242.97951359122837,318.57860603393823 Q248.012062838182,320.4322799712245 239.50292914717053,315.4523753510717 Q242.98255206106288,318.9026110361364 238.16198926316042,313.3504426689135 Q232.36617651409983,312.65388796675535 235.15959115912688,309.14763430692165 Q227.09661634590276,312.020620982513 232.23049073330856,306.23461451629896 Q230.46006675918488,301.13397354809126 228.70438329346118,304.505722803012 Q225.80331462400255,294.992999911077 225.6914897982392,300.3766035351284 L222.07119321407507,298.5443884061737 Q219.6635777707621,290.0024340564614 217.8150020075461,296.03246510077724 Q221.5212847842066,291.67571141397696 213.97494064992347,292.8657666181979 Q211.20534806432318,284.31749342113034 210.9464187411866,289.6368643604884 L207.9703334245191,286.0342864568795 Q202.5313719541586,291.46426622846667 205.45395743713638,282.6139859376984 Q205.38916107212603,282.14947296016186 204.2506974178956,278.45975956384376 Q200.79055739997864,278.25581324492293 202.98105256626022,274.53627486917907 L202.70859747881747,271.9687341126625 Q203.70903287926433,265.5027136436259 201.38566519347248,268.24864946781184 Q203.56217869383235,260.12904931799517 201.95739425422778,265.4675705826137 Q196.98398734454705,258.4197335975471 203.71470111286413,260.63925158552263 Q198.39859144390724,259.41029308517886 205.13146917308728,257.2441042368852 Q200.60113765725336,251.67338565789206 206.66331664770982,255.23881774264012 L207.5090364841987,253.04125196221517 Q207.52751106390735,248.03161030681068 211.35003705281915,250.452535763814 L214.64366737616587,247.813219906516 L218.3473510118801,245.01330032130332 L220.04896475131335,243.7623547547873 L224.79289839984537,244.4671294968613 L228.85681410619074,244.07356735282326 Q232.3939989571415,251.6949557952234 230.79553227514896,245.08458027841186 L234.05173592487532,246.8104647341025 Q238.38105427761678,252.00474577231697 237.30509270013943,246.6289218504493 Q235.07125159803232,253.81737763505444 239.2536474791059,249.19542538641423 L242.30929372562147,251.6785737686627 L245.18312450912634,253.4445994951858 Q250.60176918790276,247.3240477654481 247.04593124452563,254.64468494847264 Q242.6040712547947,260.1827091573149 247.95205469524126,256.38818113914647 Q241.94930578807615,259.00732434049223 249.3365074200368,259.70103338803966 L249.2273664936335,262.4011789974738 L250.23064776296778,263.44534904055985 L249.58817937501445,263.1428014094663 L249.9075159206621,264.014871900894 Q248.47764670954496,267.33922347653174 250.44426229419142,264.16368685863694" stroke="#333" fill="none" stroke-width="2.5" stroke-linecap="round" stroke-linejoin="round"/>
</svg>